<?xml version="1.0"?>
<svg width="667" height="666" xmlns="http://www.w3.org/2000/svg" xmlns:svg="http://www.w3.org/2000/svg" enable-background="new 0 0 667 666" version="1.1" xml:space="preserve">
 <metadata id="metadata319">image/svg+xml</metadata>
 <defs id="defs317">
  <clipPath id="clipPath69-0">
   <path d="m409.44,126.25l0,-43.63l147.8,0l0,43.63" id="path71-2"/>
  </clipPath>
  <clipPath id="clipPath101-1">
   <path d="m409.44,126.25l0,-43.63l147.8,0l0,43.63" id="path103-6"/>
  </clipPath>
  <clipPath id="clipPath69">
   <path d="m409.44,126.25l0,-43.63l147.8,0l0,43.63" id="path71"/>
  </clipPath>
  <clipPath id="clipPath101">
   <path d="m409.44,126.25l0,-43.63l147.8,0l0,43.63" id="path103"/>
  </clipPath>
  <clipPath id="clipPath69-0-2">
   <path d="m409.44,126.25l0,-43.63l147.8,0l0,43.63" id="path71-2-4"/>
  </clipPath>
  <clipPath id="clipPath101-1-9">
   <path d="m409.44,126.25l0,-43.63l147.8,0l0,43.63" id="path103-6-8"/>
  </clipPath>
  <clipPath id="clipPath69-9">
   <path d="m409.44,126.25l0,-43.63l147.8,0l0,43.63" id="path71-3"/>
  </clipPath>
  <clipPath id="clipPath101-6">
   <path d="m409.44,126.25l0,-43.63l147.8,0l0,43.63" id="path103-3"/>
  </clipPath>
  <clipPath id="clipPath69-0-7">
   <path d="m409.44,126.25l0,-43.63l147.8,0l0,43.63" id="path71-2-8"/>
  </clipPath>
  <clipPath id="clipPath101-1-0">
   <path d="m409.44,126.25l0,-43.63l147.8,0l0,43.63" id="path103-6-9"/>
  </clipPath>
  <clipPath id="clipPath69-2">
   <path d="m409.44,126.25l0,-43.63l147.8,0l0,43.63" id="path71-4"/>
  </clipPath>
  <clipPath id="clipPath101-0">
   <path d="m409.44,126.25l0,-43.63l147.8,0l0,43.63" id="path103-0"/>
  </clipPath>
  <clipPath id="clipPath69-0-2-4">
   <path d="m409.44,126.25l0,-43.63l147.8,0l0,43.63" id="path71-2-4-2"/>
  </clipPath>
  <clipPath id="clipPath101-1-9-1">
   <path d="m409.44,126.25l0,-43.63l147.8,0l0,43.63" id="path103-6-8-6"/>
  </clipPath>
  <clipPath id="clipPath69-9-0">
   <path d="m409.44,126.25l0,-43.63l147.8,0l0,43.63" id="path71-3-8"/>
  </clipPath>
  <clipPath id="clipPath101-6-4">
   <path d="m409.44,126.25l0,-43.63l147.8,0l0,43.63" id="path103-3-8"/>
  </clipPath>
 </defs>
 <style id="style2" type="text/css">.st0{fill:none;stroke:#000000;stroke-width:2;stroke-linecap:round;stroke-linejoin:round;stroke-miterlimit:10;}</style>
 <style id="style2-5" type="text/css">.st0{fill:none;stroke:#000000;stroke-width:2;stroke-linecap:round;stroke-linejoin:round;stroke-miterlimit:10;}</style>
 <g class="layer">
  <title>Layer 1</title>
  <ellipse cx="347" cy="303" fill="none" id="svg_3" rx="246" ry="137" stroke="#000000" stroke-width="6" transform="matrix(1 0 0 1 0 0)"/>
  <ellipse cx="347" cy="281" fill="#e0dbdb" id="svg_1" rx="246" ry="115" stroke="#000000" stroke-width="6"/>
 </g>
</svg>